# xmcd CD database file
#
# Track frame offsets:
#	150
#	15578
#	32214
#	48790
#	63130
#	75968
#	91655
#	107441
#	123043
#	138484
#	154156
#	168695
#	183375
#
# Disc length: 2659 seconds
#
# Revision: 0
# Processed by: cddbd v1.5.1PL0 Copyright (c) Steve Scherf et al.
# Submitted via: Feurio! 1.68 - http://www.feurio.com
#
DISCID=910a610d
DTITLE=Sally Carter - Sunshine City
DYEAR=1900
DGENRE=
TTITLE0=Lieber nehm ich dich
TTITLE1=Weekend
TTITLE2=Sunshine City
TTITLE3=Sommer in Berlin
TTITLE4=Ein bisschen manta
TTITLE5=Sorry ich lieb dich nicht mehr
TTITLE6=Das Glück kann fliegen
TTITLE7=Waagefrau will was wagen
TTITLE8=Willkommen zu Hause
TTITLE9=Spieglein
TTITLE10=Jennifer vermisst dich so
TTITLE11=Im Schatten der Nacht
TTITLE12=Gemeinsam gehts
EXTD=
EXTT0=
EXTT1=
EXTT2=
EXTT3=
EXTT4=
EXTT5=
EXTT6=
EXTT7=
EXTT8=
EXTT9=
EXTT10=
EXTT11=
EXTT12=
PLAYORDER=
